# This file uses centimeters as units for non-parametric coordinates.

mtllib PuzzleSixPiece.mtl
g default
v 4.490294 0.017648 -2.534143
v 4.490294 0.070763 -2.481029
v 4.437178 0.070763 -2.534143
v 9.749189 0.070763 -2.534143
v 9.696074 0.070763 -2.481029
v 9.696074 0.017648 -2.534143
v 4.437178 5.276544 -2.534143
v 4.490294 5.276544 -2.481029
v 4.490294 5.329659 -2.534143
v 9.696074 5.329659 -2.534143
v 9.696074 5.276544 -2.481029
v 9.749189 5.276544 -2.534143
v 4.437178 5.276544 -7.739924
v 4.490294 5.329659 -7.739924
v 4.490294 5.276544 -7.793039
v 9.696074 5.276544 -7.793039
v 9.696074 5.329659 -7.739924
v 9.749189 5.276544 -7.739924
v 4.437178 0.070763 -7.739924
v 4.490294 0.070763 -7.793039
v 4.490294 0.017648 -7.739924
v 9.696074 0.017648 -7.739924
v 9.696074 0.070763 -7.793039
v 9.749189 0.070763 -7.739924
vt 0.504424 0.472395
vt 0.378749 0.472395
vt 0.378749 0.346721
vt 0.504424 0.346721
vt 0.504424 0.473677
vt 0.378749 0.473677
vt 0.377467 0.346721
vt 0.377467 0.472395
vt 0.504424 0.345438
vt 0.378750 0.345438
vt 0.505706 0.472395
vt 0.505706 0.346721
vt 0.680416 0.347086
vt 0.806099 0.347086
vt 0.806099 0.472768
vt 0.680416 0.472768
vt 0.679134 0.347086
vt 0.679134 0.472768
vt 0.680416 0.345803
vt 0.806099 0.345803
vt 0.807381 0.347086
vt 0.807381 0.472768
vt 0.806099 0.474051
vt 0.680416 0.474051
vt 0.192402 0.772933
vt 0.192402 0.902091
vt 0.063244 0.902091
vt 0.063244 0.772933
vt 0.193720 0.772933
vt 0.193720 0.902091
vt 0.061927 0.772933
vt 0.061927 0.902091
vt 0.804667 0.773214
vt 0.804667 0.901433
vt 0.676447 0.901433
vt 0.676447 0.773214
vt 0.805975 0.773214
vt 0.805975 0.901433
vt 0.675139 0.773214
vt 0.675139 0.901433
vt 0.503697 0.773083
vt 0.503697 0.902178
vt 0.374602 0.902178
vt 0.374602 0.773083
vt 0.193576 0.343851
vt 0.193576 0.472601
vt 0.064826 0.472601
vt 0.064826 0.343851
vn -0.010032 -0.999899 0.010032
vn -0.999899 -0.010032 0.010032
vn -0.999899 -0.010032 -0.010032
vn -0.010032 -0.999899 -0.010032
vn -0.010032 -0.010032 0.999899
vn 0.010032 -0.999899 0.010032
vn 0.010032 -0.010032 0.999899
vn -0.010032 0.010032 0.999899
vn -0.999899 0.010032 0.010032
vn 0.999899 -0.010032 0.010032
vn 0.010032 -0.999899 -0.010032
vn 0.999899 -0.010032 -0.010032
vn 0.999899 0.010032 0.010032
vn 0.010032 0.010032 0.999899
vn -0.010032 0.999899 0.010032
vn -0.010032 0.999899 -0.010032
vn -0.999899 0.010032 -0.010032
vn 0.010032 0.999899 0.010032
vn 0.999899 0.010032 -0.010032
vn 0.010032 0.999899 -0.010032
vn -0.010032 0.010032 -0.999899
vn -0.010032 -0.010032 -0.999899
vn 0.010032 0.010032 -0.999899
vn 0.010032 -0.010032 -0.999899
s 1
g Puzzle_1_geo Puzzle_grp
usemtl initialShadingGroup
f 1/17/1 3/14/2 19/13/3 21/18/4
f 2/39/5 1/36/1 6/35/6 5/40/7
f 3/14/2 2/19/5 8/20/8 7/15/9
f 4/1/10 6/5/6 22/6/11 24/2/12
f 5/11/7 4/1/10 12/4/13 11/12/14
f 7/15/9 9/21/15 14/22/16 13/16/17
f 9/25/15 8/29/8 11/30/14 10/26/18
f 10/9/18 12/4/13 18/3/19 17/10/20
f 13/16/17 15/23/21 20/24/22 19/13/3
f 15/31/21 14/28/16 17/27/20 16/32/23
f 16/7/23 18/3/19 24/2/12 23/8/24
f 21/33/4 20/37/22 23/38/24 22/34/11
f 2/41/5 5/42/7 11/43/14 8/44/8
f 9/25/15 10/26/18 17/27/20 14/28/16
f 15/45/21 16/46/23 23/47/24 20/48/22
f 21/33/4 22/34/11 6/35/6 1/36/1
f 4/1/10 24/2/12 18/3/19 12/4/13
f 19/13/3 3/14/2 7/15/9 13/16/17
f 1/17/1 2/19/5 3/14/2
f 4/1/10 5/11/7 6/5/6
f 7/15/9 8/20/8 9/21/15
f 10/9/18 11/12/14 12/4/13
f 13/16/17 14/22/16 15/23/21
f 16/7/23 17/10/20 18/3/19
f 19/13/3 20/24/22 21/18/4
f 22/6/11 23/8/24 24/2/12
g default
v -2.622426 0.017648 -2.534143
v -2.622426 0.070763 -2.481029
v -2.675541 0.070763 -2.534143
v 2.636470 0.070763 -2.534143
v 2.583355 0.070763 -2.481029
v 2.583355 0.017648 -2.534143
v -2.675541 5.276544 -2.534143
v -2.622426 5.276544 -2.481029
v -2.622426 5.329659 -2.534143
v 2.583355 5.329659 -2.534143
v 2.583355 5.276544 -2.481029
v 2.636470 5.276544 -2.534143
v -2.675541 5.276544 -7.739924
v -2.622426 5.329659 -7.739924
v -2.622426 5.276544 -7.793039
v 2.583355 5.276544 -7.793039
v 2.583355 5.329659 -7.739924
v 2.636470 5.276544 -7.739924
v -2.675541 0.070763 -7.739924
v -2.622426 0.070763 -7.793039
v -2.622426 0.017648 -7.739924
v 2.583355 0.017648 -7.739924
v 2.583355 0.070763 -7.793039
v 2.636470 0.070763 -7.739924
vt 0.504360 0.343518
vt 0.378686 0.343518
vt 0.378686 0.217844
vt 0.504361 0.217844
vt 0.504360 0.344800
vt 0.378686 0.344800
vt 0.377403 0.217844
vt 0.377403 0.343518
vt 0.504360 0.216561
vt 0.378686 0.216561
vt 0.505642 0.343518
vt 0.505643 0.217844
vt 0.680476 0.218143
vt 0.806159 0.218143
vt 0.806159 0.343826
vt 0.680476 0.343826
vt 0.679194 0.218143
vt 0.679194 0.343826
vt 0.680476 0.216861
vt 0.806159 0.216861
vt 0.807441 0.218143
vt 0.807441 0.343826
vt 0.806159 0.345108
vt 0.680476 0.345108
vt 0.192328 0.642911
vt 0.192328 0.772068
vt 0.063171 0.772069
vt 0.063171 0.642911
vt 0.193646 0.642911
vt 0.193646 0.772068
vt 0.061853 0.642911
vt 0.061853 0.772069
vt 0.804921 0.644746
vt 0.804921 0.772965
vt 0.676702 0.772965
vt 0.676702 0.644746
vt 0.806229 0.644746
vt 0.806229 0.772965
vt 0.675394 0.644745
vt 0.675394 0.772965
vt 0.504122 0.643232
vt 0.504122 0.772327
vt 0.375028 0.772327
vt 0.375027 0.643232
vt 0.193454 0.214287
vt 0.193454 0.343037
vt 0.064703 0.343037
vt 0.064703 0.214287
vn -0.010032 -0.999899 0.010032
vn -0.999899 -0.010032 0.010032
vn -0.999899 -0.010032 -0.010032
vn -0.010032 -0.999899 -0.010032
vn -0.010032 -0.010032 0.999899
vn 0.010032 -0.999899 0.010032
vn 0.010032 -0.010032 0.999899
vn -0.010032 0.010032 0.999899
vn -0.999899 0.010032 0.010032
vn 0.999899 -0.010032 0.010032
vn 0.010032 -0.999899 -0.010032
vn 0.999899 -0.010032 -0.010032
vn 0.999899 0.010032 0.010032
vn 0.010032 0.010032 0.999899
vn -0.010032 0.999899 0.010032
vn -0.010032 0.999899 -0.010032
vn -0.999899 0.010032 -0.010032
vn 0.010032 0.999899 0.010032
vn 0.999899 0.010032 -0.010032
vn 0.010032 0.999899 -0.010032
vn -0.010032 0.010032 -0.999899
vn -0.010032 -0.010032 -0.999899
vn 0.010032 0.010032 -0.999899
vn 0.010032 -0.010032 -0.999899
s 1
g Puzzle_grp Puzzle_2_geo
usemtl initialShadingGroup
f 25/65/25 27/62/26 43/61/27 45/66/28
f 26/87/29 25/84/25 30/83/30 29/88/31
f 27/62/26 26/67/29 32/68/32 31/63/33
f 28/49/34 30/53/30 46/54/35 48/50/36
f 29/59/31 28/49/34 36/52/37 35/60/38
f 31/63/33 33/69/39 38/70/40 37/64/41
f 33/73/39 32/77/32 35/78/38 34/74/42
f 34/57/42 36/52/37 42/51/43 41/58/44
f 37/64/41 39/71/45 44/72/46 43/61/27
f 39/79/45 38/76/40 41/75/44 40/80/47
f 40/55/47 42/51/43 48/50/36 47/56/48
f 45/81/28 44/85/46 47/86/48 46/82/35
f 26/89/29 29/90/31 35/91/38 32/92/32
f 33/73/39 34/74/42 41/75/44 38/76/40
f 39/93/45 40/94/47 47/95/48 44/96/46
f 45/81/28 46/82/35 30/83/30 25/84/25
f 28/49/34 48/50/36 42/51/43 36/52/37
f 43/61/27 27/62/26 31/63/33 37/64/41
f 25/65/25 26/67/29 27/62/26
f 28/49/34 29/59/31 30/53/30
f 31/63/33 32/68/32 33/69/39
f 34/57/42 35/60/38 36/52/37
f 37/64/41 38/70/40 39/71/45
f 40/55/47 41/58/44 42/51/43
f 43/61/27 44/72/46 45/66/28
f 46/54/35 47/56/48 48/50/36
g default
v -9.414372 0.017648 -2.534143
v -9.414372 0.070763 -2.481029
v -9.467487 0.070763 -2.534143
v -4.155477 0.070763 -2.534143
v -4.208591 0.070763 -2.481029
v -4.208591 0.017648 -2.534143
v -9.467487 5.276544 -2.534143
v -9.414372 5.276544 -2.481029
v -9.414372 5.329659 -2.534143
v -4.208591 5.329659 -2.534143
v -4.208591 5.276544 -2.481029
v -4.155477 5.276544 -2.534143
v -9.467487 5.276544 -7.739924
v -9.414372 5.329659 -7.739924
v -9.414372 5.276544 -7.793039
v -4.208591 5.276544 -7.793039
v -4.208591 5.329659 -7.739924
v -4.155477 5.276544 -7.739924
v -9.467487 0.070763 -7.739924
v -9.414372 0.070763 -7.793039
v -9.414372 0.017648 -7.739924
v -4.208591 0.017648 -7.739924
v -4.208591 0.070763 -7.793039
v -4.155477 0.070763 -7.739924
vt 0.504962 0.214248
vt 0.379288 0.214248
vt 0.379288 0.088573
vt 0.504962 0.088573
vt 0.504962 0.215530
vt 0.379288 0.215530
vt 0.378005 0.088573
vt 0.378005 0.214248
vt 0.504962 0.087291
vt 0.379288 0.087291
vt 0.506244 0.214248
vt 0.506244 0.088573
vt 0.679561 0.088301
vt 0.805244 0.088301
vt 0.805244 0.213984
vt 0.679561 0.213984
vt 0.678279 0.088301
vt 0.678279 0.213984
vt 0.679561 0.087019
vt 0.805244 0.087019
vt 0.806526 0.088301
vt 0.806526 0.213984
vt 0.805244 0.215266
vt 0.679561 0.215266
vt 0.192435 0.512923
vt 0.192435 0.642080
vt 0.063278 0.642080
vt 0.063277 0.512923
vt 0.193753 0.512923
vt 0.193753 0.642080
vt 0.061960 0.512923
vt 0.061960 0.642080
vt 0.805051 0.515936
vt 0.805051 0.644155
vt 0.676832 0.644155
vt 0.676832 0.515936
vt 0.806359 0.515936
vt 0.806359 0.644155
vt 0.675523 0.515936
vt 0.675523 0.644155
vt 0.504117 0.513695
vt 0.504117 0.642789
vt 0.375022 0.642789
vt 0.375022 0.513695
vt 0.193458 0.085096
vt 0.193458 0.213847
vt 0.064708 0.213847
vt 0.064708 0.085096
vn -0.010032 -0.999899 0.010032
vn -0.999899 -0.010032 0.010032
vn -0.999899 -0.010032 -0.010032
vn -0.010032 -0.999899 -0.010032
vn -0.010032 -0.010032 0.999899
vn 0.010032 -0.999899 0.010032
vn 0.010032 -0.010032 0.999899
vn -0.010032 0.010032 0.999899
vn -0.999899 0.010032 0.010032
vn 0.999899 -0.010032 0.010032
vn 0.010032 -0.999899 -0.010032
vn 0.999899 -0.010032 -0.010032
vn 0.999899 0.010032 0.010032
vn 0.010032 0.010032 0.999899
vn -0.010032 0.999899 0.010032
vn -0.010032 0.999899 -0.010032
vn -0.999899 0.010032 -0.010032
vn 0.010032 0.999899 0.010032
vn 0.999899 0.010032 -0.010032
vn 0.010032 0.999899 -0.010032
vn -0.010032 0.010032 -0.999899
vn -0.010032 -0.010032 -0.999899
vn 0.010032 0.010032 -0.999899
vn 0.010032 -0.010032 -0.999899
s 1
g Puzzle_grp Puzzle_3_geo
usemtl initialShadingGroup
f 49/113/49 51/110/50 67/109/51 69/114/52
f 50/135/53 49/132/49 54/131/54 53/136/55
f 51/110/50 50/115/53 56/116/56 55/111/57
f 52/97/58 54/101/54 70/102/59 72/98/60
f 53/107/55 52/97/58 60/100/61 59/108/62
f 55/111/57 57/117/63 62/118/64 61/112/65
f 57/121/63 56/125/56 59/126/62 58/122/66
f 58/105/66 60/100/61 66/99/67 65/106/68
f 61/112/65 63/119/69 68/120/70 67/109/51
f 63/127/69 62/124/64 65/123/68 64/128/71
f 64/103/71 66/99/67 72/98/60 71/104/72
f 69/129/52 68/133/70 71/134/72 70/130/59
f 50/137/53 53/138/55 59/139/62 56/140/56
f 57/121/63 58/122/66 65/123/68 62/124/64
f 63/141/69 64/142/71 71/143/72 68/144/70
f 69/129/52 70/130/59 54/131/54 49/132/49
f 52/97/58 72/98/60 66/99/67 60/100/61
f 67/109/51 51/110/50 55/111/57 61/112/65
f 49/113/49 50/115/53 51/110/50
f 52/97/58 53/107/55 54/101/54
f 55/111/57 56/116/56 57/117/63
f 58/105/66 59/108/62 60/100/61
f 61/112/65 62/118/64 63/119/69
f 64/103/71 65/106/68 66/99/67
f 67/109/51 68/120/70 69/114/52
f 70/102/59 71/104/72 72/98/60
g default
v 4.481363 0.017648 8.021814
v 4.481363 0.070763 8.074930
v 4.428248 0.070763 8.021814
v 9.740259 0.070763 8.021814
v 9.687144 0.070763 8.074930
v 9.687144 0.017648 8.021814
v 4.428248 5.276544 8.021814
v 4.481363 5.276544 8.074930
v 4.481363 5.329659 8.021814
v 9.687144 5.329659 8.021814
v 9.687144 5.276544 8.074930
v 9.740259 5.276544 8.021814
v 4.428248 5.276544 2.816034
v 4.481363 5.329659 2.816034
v 4.481363 5.276544 2.762919
v 9.687144 5.276544 2.762919
v 9.687144 5.329659 2.816034
v 9.740259 5.276544 2.816034
v 4.428248 0.070763 2.816034
v 4.481363 0.070763 2.762919
v 4.481363 0.017648 2.816034
v 9.687144 0.017648 2.816034
v 9.687144 0.070763 2.762919
v 9.740259 0.070763 2.816034
vt 0.633666 0.472422
vt 0.507991 0.472422
vt 0.507991 0.346747
vt 0.633666 0.346747
vt 0.633666 0.473704
vt 0.507991 0.473704
vt 0.506709 0.346747
vt 0.506709 0.472422
vt 0.633666 0.345465
vt 0.507991 0.345465
vt 0.634948 0.472422
vt 0.634948 0.346747
vt 0.809462 0.346725
vt 0.935145 0.346725
vt 0.935145 0.472407
vt 0.809462 0.472407
vt 0.808180 0.346725
vt 0.808180 0.472408
vt 0.809462 0.345443
vt 0.935145 0.345443
vt 0.936427 0.346725
vt 0.936427 0.472408
vt 0.935145 0.473690
vt 0.809462 0.473690
vt 0.324907 0.772754
vt 0.324907 0.901912
vt 0.195750 0.901912
vt 0.195750 0.772754
vt 0.326225 0.772754
vt 0.326225 0.901912
vt 0.194432 0.772754
vt 0.194432 0.901912
vt 0.936075 0.773377
vt 0.936075 0.901596
vt 0.807856 0.901596
vt 0.807856 0.773377
vt 0.937383 0.773377
vt 0.937383 0.901596
vt 0.806548 0.773377
vt 0.806548 0.901596
vt 0.633460 0.772878
vt 0.633460 0.901973
vt 0.504365 0.901973
vt 0.504365 0.772878
vt 0.323070 0.343648
vt 0.323070 0.472398
vt 0.194320 0.472398
vt 0.194320 0.343648
vn -0.010032 -0.999899 0.010032
vn -0.999899 -0.010032 0.010032
vn -0.999899 -0.010032 -0.010032
vn -0.010032 -0.999899 -0.010032
vn -0.010032 -0.010032 0.999899
vn 0.010032 -0.999899 0.010032
vn 0.010032 -0.010032 0.999899
vn -0.010032 0.010032 0.999899
vn -0.999899 0.010032 0.010032
vn 0.999899 -0.010032 0.010032
vn 0.010032 -0.999899 -0.010032
vn 0.999899 -0.010032 -0.010032
vn 0.999899 0.010032 0.010032
vn 0.010032 0.010032 0.999899
vn -0.010032 0.999899 0.010032
vn -0.010032 0.999899 -0.010032
vn -0.999899 0.010032 -0.010032
vn 0.010032 0.999899 0.010032
vn 0.999899 0.010032 -0.010032
vn 0.010032 0.999899 -0.010032
vn -0.010032 0.010032 -0.999899
vn -0.010032 -0.010032 -0.999899
vn 0.010032 0.010032 -0.999899
vn 0.010032 -0.010032 -0.999899
s 1
g Puzzle_grp Puzzle_4_geo
usemtl initialShadingGroup
f 73/161/73 75/158/74 91/157/75 93/162/76
f 74/183/77 73/180/73 78/179/78 77/184/79
f 75/158/74 74/163/77 80/164/80 79/159/81
f 76/145/82 78/149/78 94/150/83 96/146/84
f 77/155/79 76/145/82 84/148/85 83/156/86
f 79/159/81 81/165/87 86/166/88 85/160/89
f 81/169/87 80/173/80 83/174/86 82/170/90
f 82/153/90 84/148/85 90/147/91 89/154/92
f 85/160/89 87/167/93 92/168/94 91/157/75
f 87/175/93 86/172/88 89/171/92 88/176/95
f 88/151/95 90/147/91 96/146/84 95/152/96
f 93/177/76 92/181/94 95/182/96 94/178/83
f 74/185/77 77/186/79 83/187/86 80/188/80
f 81/169/87 82/170/90 89/171/92 86/172/88
f 87/189/93 88/190/95 95/191/96 92/192/94
f 93/177/76 94/178/83 78/179/78 73/180/73
f 76/145/82 96/146/84 90/147/91 84/148/85
f 91/157/75 75/158/74 79/159/81 85/160/89
f 73/161/73 74/163/77 75/158/74
f 76/145/82 77/155/79 78/149/78
f 79/159/81 80/164/80 81/165/87
f 82/153/90 83/156/86 84/148/85
f 85/160/89 86/166/88 87/167/93
f 88/151/95 89/154/92 90/147/91
f 91/157/75 92/168/94 93/162/76
f 94/150/83 95/152/96 96/146/84
g default
v -2.622426 0.017648 8.021814
v -2.622426 0.070763 8.074930
v -2.675541 0.070763 8.021814
v 2.636470 0.070763 8.021814
v 2.583355 0.070763 8.074930
v 2.583355 0.017648 8.021814
v -2.675541 5.276544 8.021814
v -2.622426 5.276544 8.074930
v -2.622426 5.329659 8.021814
v 2.583355 5.329659 8.021814
v 2.583355 5.276544 8.074930
v 2.636470 5.276544 8.021814
v -2.675541 5.276544 2.816034
v -2.622426 5.329659 2.816034
v -2.622426 5.276544 2.762919
v 2.583355 5.276544 2.762919
v 2.583355 5.329659 2.816034
v 2.636470 5.276544 2.816034
v -2.675541 0.070763 2.816034
v -2.622426 0.070763 2.762919
v -2.622426 0.017648 2.816034
v 2.583355 0.017648 2.816034
v 2.583355 0.070763 2.762919
v 2.636470 0.070763 2.816034
vt 0.633570 0.343226
vt 0.507896 0.343226
vt 0.507896 0.217552
vt 0.633571 0.217552
vt 0.633570 0.344508
vt 0.507896 0.344508
vt 0.506614 0.217552
vt 0.506614 0.343226
vt 0.633571 0.216270
vt 0.507896 0.216270
vt 0.634853 0.343226
vt 0.634853 0.217552
vt 0.809857 0.217622
vt 0.935539 0.217622
vt 0.935539 0.343304
vt 0.809856 0.343304
vt 0.808574 0.217622
vt 0.808574 0.343304
vt 0.809857 0.216339
vt 0.935539 0.216339
vt 0.936821 0.217622
vt 0.936821 0.343304
vt 0.935539 0.344586
vt 0.809857 0.344586
vt 0.325147 0.642874
vt 0.325148 0.772032
vt 0.195990 0.772032
vt 0.195990 0.642874
vt 0.326465 0.642874
vt 0.326465 0.772032
vt 0.194672 0.642874
vt 0.194672 0.772032
vt 0.936288 0.644680
vt 0.936288 0.772899
vt 0.808069 0.772899
vt 0.808069 0.644680
vt 0.937596 0.644680
vt 0.937596 0.772899
vt 0.806761 0.644680
vt 0.806761 0.772899
vt 0.633815 0.643016
vt 0.633815 0.772110
vt 0.504720 0.772110
vt 0.504720 0.643016
vt 0.322637 0.214263
vt 0.322637 0.343014
vt 0.193887 0.343014
vt 0.193887 0.214263
vn -0.010032 -0.999899 0.010032
vn -0.999899 -0.010032 0.010032
vn -0.999899 -0.010032 -0.010032
vn -0.010032 -0.999899 -0.010032
vn -0.010032 -0.010032 0.999899
vn 0.010032 -0.999899 0.010032
vn 0.010032 -0.010032 0.999899
vn -0.010032 0.010032 0.999899
vn -0.999899 0.010032 0.010032
vn 0.999899 -0.010032 0.010032
vn 0.010032 -0.999899 -0.010032
vn 0.999899 -0.010032 -0.010032
vn 0.999899 0.010032 0.010032
vn 0.010032 0.010032 0.999899
vn -0.010032 0.999899 0.010032
vn -0.010032 0.999899 -0.010032
vn -0.999899 0.010032 -0.010032
vn 0.010032 0.999899 0.010032
vn 0.999899 0.010032 -0.010032
vn 0.010032 0.999899 -0.010032
vn -0.010032 0.010032 -0.999899
vn -0.010032 -0.010032 -0.999899
vn 0.010032 0.010032 -0.999899
vn 0.010032 -0.010032 -0.999899
s 1
g Puzzle_grp Puzzle_5_geo
usemtl initialShadingGroup
f 97/209/97 99/206/98 115/205/99 117/210/100
f 98/231/101 97/228/97 102/227/102 101/232/103
f 99/206/98 98/211/101 104/212/104 103/207/105
f 100/193/106 102/197/102 118/198/107 120/194/108
f 101/203/103 100/193/106 108/196/109 107/204/110
f 103/207/105 105/213/111 110/214/112 109/208/113
f 105/217/111 104/221/104 107/222/110 106/218/114
f 106/201/114 108/196/109 114/195/115 113/202/116
f 109/208/113 111/215/117 116/216/118 115/205/99
f 111/223/117 110/220/112 113/219/116 112/224/119
f 112/199/119 114/195/115 120/194/108 119/200/120
f 117/225/100 116/229/118 119/230/120 118/226/107
f 98/233/101 101/234/103 107/235/110 104/236/104
f 105/217/111 106/218/114 113/219/116 110/220/112
f 111/237/117 112/238/119 119/239/120 116/240/118
f 117/225/100 118/226/107 102/227/102 97/228/97
f 100/193/106 120/194/108 114/195/115 108/196/109
f 115/205/99 99/206/98 103/207/105 109/208/113
f 97/209/97 98/211/101 99/206/98
f 100/193/106 101/203/103 102/197/102
f 103/207/105 104/212/104 105/213/111
f 106/201/114 107/204/110 108/196/109
f 109/208/113 110/214/112 111/215/117
f 112/199/119 113/202/116 114/195/115
f 115/205/99 116/216/118 117/210/100
f 118/198/107 119/200/120 120/194/108
g default
v -9.374080 0.017648 8.021814
v -9.374080 0.070763 8.074930
v -9.427195 0.070763 8.021814
v -4.115184 0.070763 8.021814
v -4.168299 0.070763 8.074930
v -4.168299 0.017648 8.021814
v -9.427195 5.276544 8.021814
v -9.374080 5.276544 8.074930
v -9.374080 5.329659 8.021814
v -4.168299 5.329659 8.021814
v -4.168299 5.276544 8.074930
v -4.115184 5.276544 8.021814
v -9.427195 5.276544 2.816034
v -9.374080 5.329659 2.816034
v -9.374080 5.276544 2.762919
v -4.168299 5.276544 2.762919
v -4.168299 5.329659 2.816034
v -4.115184 5.276544 2.816034
v -9.427195 0.070763 2.816034
v -9.374080 0.070763 2.762919
v -9.374080 0.017648 2.816034
v -4.168299 0.017648 2.816034
v -4.168299 0.070763 2.762919
v -4.115184 0.070763 2.816034
vt 0.634132 0.213909
vt 0.508457 0.213909
vt 0.508457 0.088234
vt 0.634132 0.088234
vt 0.634132 0.215191
vt 0.508457 0.215191
vt 0.507175 0.088234
vt 0.507175 0.213909
vt 0.634132 0.086952
vt 0.508457 0.086952
vt 0.635414 0.213909
vt 0.635414 0.088234
vt 0.809942 0.088340
vt 0.935624 0.088340
vt 0.935624 0.214022
vt 0.809942 0.214022
vt 0.808659 0.088340
vt 0.808659 0.214022
vt 0.809942 0.087057
vt 0.935624 0.087057
vt 0.936906 0.088340
vt 0.936906 0.214022
vt 0.935624 0.215304
vt 0.809942 0.215304
vt 0.325223 0.512818
vt 0.325224 0.641976
vt 0.196066 0.641976
vt 0.196066 0.512818
vt 0.326541 0.512818
vt 0.326541 0.641976
vt 0.194748 0.512818
vt 0.194748 0.641976
vt 0.936059 0.515897
vt 0.936059 0.644116
vt 0.807839 0.644116
vt 0.807839 0.515897
vt 0.937367 0.515897
vt 0.937367 0.644116
vt 0.806531 0.515897
vt 0.806531 0.644116
vt 0.633917 0.513403
vt 0.633917 0.642498
vt 0.504823 0.642498
vt 0.504823 0.513403
vt 0.322683 0.085077
vt 0.322683 0.213827
vt 0.193933 0.213827
vt 0.193933 0.085077
vn -0.010032 -0.999899 0.010032
vn -0.999899 -0.010032 0.010032
vn -0.999899 -0.010032 -0.010032
vn -0.010032 -0.999899 -0.010032
vn -0.010032 -0.010032 0.999899
vn 0.010032 -0.999899 0.010032
vn 0.010032 -0.010032 0.999899
vn -0.010032 0.010032 0.999899
vn -0.999899 0.010032 0.010032
vn 0.999899 -0.010032 0.010032
vn 0.010032 -0.999899 -0.010032
vn 0.999899 -0.010032 -0.010032
vn 0.999899 0.010032 0.010032
vn 0.010032 0.010032 0.999899
vn -0.010032 0.999899 0.010032
vn -0.010032 0.999899 -0.010032
vn -0.999899 0.010032 -0.010032
vn 0.010032 0.999899 0.010032
vn 0.999899 0.010032 -0.010032
vn 0.010032 0.999899 -0.010032
vn -0.010032 0.010032 -0.999899
vn -0.010032 -0.010032 -0.999899
vn 0.010032 0.010032 -0.999899
vn 0.010032 -0.010032 -0.999899
s 1
g Puzzle_grp Puzzle_6_geo
usemtl initialShadingGroup
f 121/257/121 123/254/122 139/253/123 141/258/124
f 122/279/125 121/276/121 126/275/126 125/280/127
f 123/254/122 122/259/125 128/260/128 127/255/129
f 124/241/130 126/245/126 142/246/131 144/242/132
f 125/251/127 124/241/130 132/244/133 131/252/134
f 127/255/129 129/261/135 134/262/136 133/256/137
f 129/265/135 128/269/128 131/270/134 130/266/138
f 130/249/138 132/244/133 138/243/139 137/250/140
f 133/256/137 135/263/141 140/264/142 139/253/123
f 135/271/141 134/268/136 137/267/140 136/272/143
f 136/247/143 138/243/139 144/242/132 143/248/144
f 141/273/124 140/277/142 143/278/144 142/274/131
f 122/281/125 125/282/127 131/283/134 128/284/128
f 129/265/135 130/266/138 137/267/140 134/268/136
f 135/285/141 136/286/143 143/287/144 140/288/142
f 141/273/124 142/274/131 126/275/126 121/276/121
f 124/241/130 144/242/132 138/243/139 132/244/133
f 139/253/123 123/254/122 127/255/129 133/256/137
f 121/257/121 122/259/125 123/254/122
f 124/241/130 125/251/127 126/245/126
f 127/255/129 128/260/128 129/261/135
f 130/249/138 131/252/134 132/244/133
f 133/256/137 134/262/136 135/263/141
f 136/247/143 137/250/140 138/243/139
f 139/253/123 140/264/142 141/258/124
f 142/246/131 143/248/144 144/242/132
