# This file uses centimeters as units for non-parametric coordinates.

mtllib brick_2.mtl
g default
v -314.641296 -12.036565 13.686234
v -303.515839 -12.036565 13.686234
v -283.448486 -12.036565 13.686234
v -281.264893 -12.036565 13.686234
v -314.641296 12.036565 13.686234
v -303.515839 12.036565 13.686234
v -314.641296 11.475450 -13.042422
v -303.515839 12.652448 -14.601703
v -283.448486 12.036565 -13.686234
v -314.641296 -12.036565 -13.686234
v -303.515839 -12.036565 -13.686234
v -283.448486 -12.036565 -13.686234
v -281.264893 -12.036565 -13.686234
v -284.800171 12.036565 11.701542
v -285.417694 12.036565 12.574904
v -284.800171 11.163202 12.574904
v -282.138275 9.597185 8.974821
v -281.264893 6.627624 11.369987
v -281.264893 6.627624 -13.686234
v -282.617004 10.374104 -13.428714
v -319.647766 12.036565 13.686234
v -325.766785 -1.203657 13.686234
v -325.766785 12.036565 -1.368624
v -325.766785 12.036565 -11.457637
v -323.541870 11.924352 -13.557485
v -325.766785 -9.873300 -11.522968
v -323.603516 -12.036565 -13.686234
v -323.603516 -12.036565 13.686234
v -325.766785 -9.873300 13.686234
vt 0.534156 0.539054
vt 0.567720 0.545034
vt 0.526297 0.676761
vt 0.492048 0.671710
vt 0.581615 0.686443
vt 0.584768 0.682912
vt 0.629739 0.557712
vt 0.522138 0.816643
vt 0.485867 0.814612
vt 0.583835 0.690073
vt 0.585461 0.817047
vt 0.517550 0.956408
vt 0.482667 0.954973
vt 0.581240 0.957655
vt 0.588106 0.826817
vt 0.591790 0.848813
vt 0.588137 0.957819
vt 0.542176 0.402800
vt 0.578662 0.405150
vt 0.643649 0.411714
vt 0.650520 0.412504
vt 0.636695 0.559214
vt 0.393667 0.649680
vt 0.482477 0.590145
vt 0.476338 0.668550
vt 0.604527 0.662979
vt 0.605347 0.683828
vt 0.712013 0.726634
vt 0.698811 0.745193
vt 0.694449 0.754407
vt 0.766496 0.628384
vt 0.457378 0.813606
vt 0.450761 0.802116
vt 0.453377 0.748296
vt 0.507492 0.534496
vt 0.496312 0.541184
vt 0.342574 0.638086
vt 0.330175 0.634559
vt 0.360690 0.497564
vt 0.370598 0.512836
vt 0.497445 0.413800
vt 0.512601 0.402437
vt 0.454606 0.954238
vn 0.000000 0.000000 1.000000
vn 0.011240 0.012945 0.999853
vn 0.027532 0.000000 0.999621
vn 0.000000 0.000000 1.000000
vn 0.058700 0.001954 0.998274
vn 0.048879 0.051623 0.997470
vn 0.059897 0.056866 0.996583
vn -0.040869 0.999164 -0.000656
vn -0.028678 0.999536 0.010249
vn -0.019293 0.999801 0.004990
vn -0.024572 0.999686 -0.004948
vn 0.002372 0.999775 0.021077
vn 0.203007 0.979142 0.008335
vn 0.180619 0.983533 0.006305
vn -0.026814 0.003851 -0.999633
vn -0.009075 -0.014274 -0.999857
vn -0.010153 -0.014121 -0.999849
vn -0.026047 0.004020 -0.999653
vn 0.024269 -0.018650 -0.999532
vn 0.021540 -0.018003 -0.999606
vn 0.214904 0.003249 -0.976630
vn -0.135305 0.015830 -0.990678
vn 0.000000 0.000000 -1.000000
vn 0.000000 -1.000000 0.000000
vn 0.000000 -1.000000 0.000000
vn 0.000000 -1.000000 0.000000
vn 0.000000 -1.000000 0.000000
vn 0.000000 -1.000000 0.000000
vn 0.000000 -1.000000 0.000000
vn 0.000000 -1.000000 0.000000
vn 0.000000 -1.000000 0.000000
vn -0.388000 0.908067 0.157702
vn -0.478573 0.221175 0.849735
vn -0.603698 0.595323 0.530226
vn 0.788317 0.492650 0.368580
vn 0.788317 0.492650 0.368580
vn 0.788317 0.492650 0.368580
vn 0.788317 0.492650 0.368580
vn 0.949658 0.313258 -0.004451
vn 0.949658 0.313258 -0.004451
vn 0.949658 0.313258 -0.004451
vn 0.949658 0.313258 -0.004451
vn 0.271151 0.087238 0.958575
vn 0.271151 0.087238 0.958575
vn 0.768297 0.639627 0.024432
vn 0.768297 0.639627 0.024432
vn 1.000000 0.000001 0.000000
vn 1.000000 0.000001 0.000000
vn 1.000000 0.000001 0.000000
vn 1.000000 0.000001 0.000000
vn 0.707113 0.500017 0.499974
vn 0.707113 0.500017 0.499974
vn 0.707113 0.500017 0.499974
vn 0.047741 0.998665 -0.019710
vn 0.027175 0.999558 -0.012024
vn 0.000000 0.000000 1.000000
vn 0.000000 0.000000 1.000000
vn -0.695745 0.003974 -0.718278
vn -0.695745 0.003974 -0.718278
vn -0.695745 0.003974 -0.718278
vn -0.695745 0.003974 -0.718278
vn -0.707107 -0.707107 0.000000
vn -0.707107 -0.707107 0.000000
vn -0.707107 -0.707107 0.000000
vn -0.707107 -0.707107 0.000000
vn 0.029226 0.016227 -0.999441
vn 0.029226 0.016227 -0.999441
vn 0.000000 -1.000000 0.000000
vn 0.000000 -1.000000 0.000000
vn -1.000000 -0.000002 0.000000
vn -1.000000 -0.000001 0.000000
vn -1.000000 -0.000002 0.000000
vn -1.000000 0.000000 0.000000
vn -1.000000 0.000000 0.000000
s 1
g statue_only_remeshed:polySurface581 statue_only_remeshed:statue_only_remeshed:pCube12
usemtl texturedFacets1
f 1/1/1 2/2/2 6/3/3 5/4/4
f 6/3/3 2/2/2 15/5/5
f 15/5/5 2/2/2 16/6/6
f 2/2/2 3/7/7 16/6/6
f 5/4/8 6/3/9 8/8/10 7/9/11
f 6/3/9 15/5/12 8/8/10
f 15/5/12 14/10/13 8/8/10
f 14/10/13 9/11/14 8/8/10
s 3
f 7/9/15 8/8/16 11/12/17 10/13/18
f 8/8/16 9/11/19 12/14/20 11/12/17
f 9/11/19 20/15/21 12/14/20
f 20/15/21 19/16/22 12/14/20
f 19/16/22 13/17/23 12/14/20
s 4
f 10/18/24 11/19/25 2/2/26 1/1/27
f 11/19/25 12/20/28 3/7/29 2/2/26
f 12/20/28 13/21/30 4/22/31 3/7/29
s 1
f 23/23/32 22/24/33 21/25/34
s off
f 14/10/35 16/6/36 18/26/37 17/27/38
f 17/27/39 18/26/40 19/28/41 20/29/42
s 1
f 3/7/7 4/22/43 18/26/44 16/6/6
f 14/10/13 17/27/45 20/29/46 9/30/14
s off
f 4/22/47 13/31/48 19/28/49 18/26/50
f 14/10/51 15/5/52 16/6/53
s 1
f 7/9/11 25/32/54 5/4/8
f 25/32/54 24/33/55 5/4/8
f 24/33/55 23/34/32 5/4/8
f 23/34/32 21/25/34 5/4/8
f 1/1/1 5/4/4 28/35/56
f 28/35/56 5/4/4 29/36/57
f 29/36/57 5/4/4 22/24/33
f 5/4/4 21/25/34 22/24/33
s off
f 24/37/58 25/38/59 27/39/60 26/40/61
f 26/41/62 27/42/63 28/35/64 29/36/65
s 3
f 27/43/66 25/32/67 7/9/15 10/13/18
s 4
f 27/42/68 10/18/24 1/1/27 28/35/69
s 6
f 26/40/70 29/36/71 24/37/72
f 29/36/71 22/24/73 24/37/72
f 22/24/73 23/23/74 24/37/72
